<svg width="82" height="82" viewBox="0 0 82 82" fill="none" xmlns="http://www.w3.org/2000/svg">
<path d="M80.984 43.4786C80.1421 41.9268 80.1421 40.0738 80.9837 38.5218C82.9118 34.966 82.0308 30.5362 78.8887 27.989C77.5173 26.8772 76.8081 25.1651 76.9915 23.4093C77.4122 19.3864 74.9031 15.631 71.0254 14.48C69.3328 13.9778 68.0226 12.6674 67.5202 10.975C66.3692 7.09748 62.614 4.58736 58.591 5.00873C56.8343 5.19226 55.1229 4.48309 54.0111 3.11168C51.4638 -0.0307312 47.0341 -0.911907 43.4783 1.01621C41.9262 1.85766 40.0734 1.85766 38.5213 1.01621C34.9658 -0.911747 30.5361 -0.0308916 27.9883 3.11136C26.8769 4.48277 25.1634 5.19242 23.4087 5.0084C19.3856 4.58736 15.6304 7.09699 14.4794 10.9747C13.9771 12.667 12.6669 13.9774 10.9744 14.4797C7.09669 15.6307 4.58737 19.3859 5.00794 23.4088C5.19148 25.1646 4.48247 26.8767 3.1109 27.9885C-0.0310369 30.5358 -0.912213 34.9655 1.0159 38.5213C1.85752 40.0732 1.85752 41.9264 1.0159 43.4783C-0.912213 47.034 -0.031197 51.4638 3.1109 54.0111C4.48231 55.1229 5.19148 56.8349 5.0081 58.5907C4.58737 62.6137 7.09653 66.369 10.9744 67.52C12.6669 68.0223 13.9771 69.3327 14.4795 71.025C15.6306 74.9027 19.3854 77.4127 23.4087 76.9913C25.1658 76.8078 26.8769 77.5169 27.9887 78.8884C30.5358 82.0304 34.9657 82.9115 38.5215 80.9833C40.0735 80.1419 41.9264 80.1419 43.4784 80.9833C44.7427 81.6688 46.117 81.9992 47.4783 81.9992C49.9458 81.9992 52.3695 80.9132 54.0114 78.8884C55.1229 77.5169 56.8367 76.8081 58.591 76.9913C58.8857 77.0221 59.1785 77.0373 59.4693 77.0373C63.1496 77.0371 66.4536 74.6188 67.5204 71.0249C68.0228 69.3325 69.3328 68.0221 71.0255 67.5197C74.9032 66.3687 77.4125 62.6135 76.9918 58.5905C76.8083 56.8348 77.5173 55.1227 78.8888 54.0109C82.0309 51.4639 82.9121 47.0344 80.984 43.4786ZM78.1678 45.0058C79.361 47.206 78.8158 49.9471 76.8714 51.5235C74.6553 53.3203 73.5092 56.087 73.8058 58.9246C74.0661 61.4139 72.5134 63.7378 70.1138 64.45C67.3788 65.2618 65.2612 67.3794 64.4494 70.1145C63.7373 72.5138 61.416 74.0678 58.924 73.8064C56.0864 73.51 53.3198 74.6559 51.5231 76.8722C49.9466 78.8166 47.2056 79.3616 45.0052 78.1686C43.751 77.4884 42.3758 77.1486 40.9999 77.1486C39.6243 77.1486 38.2484 77.4887 36.9945 78.1686C34.7943 79.3619 32.0531 78.8166 30.4768 76.8723C28.6802 74.6561 25.9139 73.5097 23.0756 73.8066C20.5869 74.0675 18.2626 72.5143 17.5502 70.1147C16.7384 67.3796 14.6208 65.262 11.8858 64.4502C9.48637 63.7379 7.9335 61.4141 8.19376 58.9248C8.49052 56.0873 7.34429 53.3206 5.12822 51.5238C3.18377 49.9476 2.6386 47.2065 3.83176 45.006C5.19164 42.498 5.19164 39.5034 3.83176 36.995C2.6386 34.7948 3.18377 32.0537 5.12822 30.4773C7.34429 28.6805 8.49036 25.9138 8.19376 23.0762C7.9335 20.5869 9.48621 18.263 11.8858 17.5508C14.6208 16.739 16.7384 14.6214 17.5502 11.8861C18.2623 9.48684 20.5848 7.93333 23.0756 8.19422C25.9132 8.49083 28.6799 7.34475 30.4765 5.12852C32.0529 3.18407 34.7942 2.63922 36.9944 3.83206C39.5024 5.1921 42.4968 5.1921 45.0052 3.83206C47.2054 2.63874 49.9466 3.18407 51.5229 5.12836C53.3195 7.34459 56.0846 8.49067 58.9242 8.19406C61.4132 7.93429 63.7373 9.48636 64.4494 11.886C65.2612 14.6211 67.3788 16.7387 70.1138 17.5504C72.5132 18.2626 74.0661 20.5864 73.8058 23.0757C73.5091 25.9132 74.6553 28.6799 76.8714 30.4767C78.8158 32.0529 79.361 34.794 78.1678 36.9945C76.808 39.5029 76.808 42.4976 78.1678 45.0058Z" fill="#4295E4"/>
</svg>
